<svg width="600" height="153" viewBox="0 0 600 153" fill="none" xmlns="http://www.w3.org/2000/svg">
<g clip-path="url(#clip0_130_351)">
<path d="M0 53.4C0 24.18 20.1 0 51.57 0C58.3743 0.0107932 65.1062 1.39843 71.3601 4.07941C77.6139 6.76038 83.2606 10.6793 87.96 15.6L76.86 28.23C70.0111 21.7087 60.907 18.0864 51.4501 18.12C30.2101 18.12 16.86 33.87 16.86 53.4C16.86 72.93 30.2101 88.8 51.4501 88.8C60.9279 88.7933 70.0347 85.1161 76.86 78.54L87.96 91.2C83.2563 96.1152 77.6088 100.03 71.3558 102.711C65.1029 105.392 58.3733 106.782 51.57 106.8C20.1 106.8 0 82.62 0 53.4Z" fill="black"/>
<path d="M128.85 31.05C150.78 31.05 164.13 48.33 164.13 68.58C164.13 88.83 150.78 106.08 128.85 106.08C106.92 106.08 93.5996 88.8 93.5996 68.58C93.5996 48.36 107.07 31.05 128.85 31.05ZM148.68 68.58C148.68 56.34 141.51 47.07 128.85 47.07C116.19 47.07 109.05 56.34 109.05 68.58C109.05 80.82 116.22 90.21 128.85 90.21C141.48 90.21 148.68 80.94 148.68 68.58Z" fill="black"/>
<path d="M210.36 47.9101C207.985 47.8695 205.626 48.3073 203.424 49.1975C201.222 50.0877 199.221 51.4121 197.542 53.0917C195.862 54.7713 194.537 56.7719 193.647 58.9741C192.757 61.1763 192.319 63.5351 192.36 65.9101V105.39H175.92V31.4701H192.63V42.4201C194.666 39.0671 197.534 36.2973 200.956 34.3788C204.378 32.4603 208.237 31.4583 212.16 31.4701C229.32 31.4701 244.92 41.4601 244.92 62.9401V105.51H228.18V65.4901C228.06 55.3501 222.6 47.9101 210.36 47.9101Z" fill="black"/>
<path d="M289.92 105.51C283.707 105.229 277.834 102.59 273.498 98.1311C269.162 93.6723 266.688 87.7286 266.58 81.51V46.5001H253.92V31.0501H266.7V4.3501H284.13V31.0501H303.66V46.5001H284.13V81.4801C284.13 85.9801 286.23 88.11 290.13 88.11C292.08 88.11 292.77 87.6901 294.75 85.7101L306.75 98.3701C302.28 102.845 296.244 105.405 289.92 105.51Z" fill="black"/>
<path d="M348.21 31.05C354.822 30.8104 361.348 32.6105 366.903 36.2061C372.457 39.8018 376.771 45.0189 379.26 51.1499C382.038 59.0804 383.23 67.4796 382.77 75.87H328.11C330.24 84.87 336.84 90.87 348.36 90.87C361.71 90.87 364.38 82.8599 364.38 82.8599L379.11 89.3399C379.11 89.3399 372.39 105.9 348.21 105.9C325.32 105.9 312.39 88.77 312.39 68.55C312.39 48.33 325.32 31.05 348.21 31.05ZM348.36 46.23C337.95 46.23 329.67 51.2999 328.11 62.2499H366.9C365.91 52.8299 359.46 46.23 348.36 46.23Z" fill="black"/>
<path d="M434.46 68.58L461.46 105.51H441.51L424.23 82.35L406.92 105.51H386.82L413.52 68.58L386.13 31.47H406.35L424.08 55.47L441.63 31.47H461.85L434.46 68.58Z" fill="black"/>
<path d="M502.92 105.51C496.707 105.229 490.834 102.59 486.498 98.1311C482.162 93.6723 479.688 87.7286 479.58 81.51V46.5001H466.92V31.0501H479.7V4.3501H496.92V31.0501H516.45V46.5001H496.92V81.4801C496.92 85.9801 499.02 88.11 502.92 88.11C504.9 88.11 505.59 87.6901 507.57 85.7101L519.57 98.3701C515.144 102.802 509.181 105.359 502.92 105.51Z" fill="black"/>
<path d="M581.19 31.77L561.51 77.7L541.41 31.05H522.3L552.81 99.33L542.34 125.4C541.067 128.552 538.883 131.252 536.066 133.155C533.25 135.058 529.929 136.076 526.53 136.08H5.75977V152.04H528.66C534.481 152.044 540.175 150.341 545.038 147.142C549.901 143.943 553.719 139.387 556.02 134.04L571.92 97.08L600 31.77H581.19Z" fill="black"/>
<path d="M575.22 68.5801H547.5V80.4301H575.22V68.5801Z" fill="black"/>
</g>
<defs>
<clipPath id="clip0_130_351">
<rect width="600" height="152.04" fill="white"/>
</clipPath>
</defs>
</svg>
