<svg width="24" height="24" viewBox="0 0 24 24" fill="none" xmlns="http://www.w3.org/2000/svg">
<path fill-rule="evenodd" clip-rule="evenodd" d="M7 8H6C4.89543 8 4 8.89543 4 10V18C4 19.1046 4.89543 20 6 20H14C15.1046 20 16 19.1046 16 18V17H14.5V18C14.5 18.2761 14.2761 18.5 14 18.5H6C5.72386 18.5 5.5 18.2761 5.5 18V10C5.5 9.72386 5.72386 9.5 6 9.5H7V8Z" fill="#ADB5BD"/>
<path fill-rule="evenodd" clip-rule="evenodd" d="M18 5.5H10C9.72386 5.5 9.5 5.72386 9.5 6V14C9.5 14.2761 9.72386 14.5 10 14.5H18C18.2761 14.5 18.5 14.2761 18.5 14V6C18.5 5.72386 18.2761 5.5 18 5.5ZM10 4C8.89543 4 8 4.89543 8 6V14C8 15.1046 8.89543 16 10 16H18C19.1046 16 20 15.1046 20 14V6C20 4.89543 19.1046 4 18 4H10Z" fill="#ADB5BD"/>
</svg>
