<svg width="222" height="222" viewBox="0 0 222 222" fill="none" xmlns="http://www.w3.org/2000/svg">
<path d="M111 0C140.439 0 168.672 11.6946 189.489 32.5111C210.305 53.3277 222 81.561 222 111C222 140.439 210.305 168.672 189.489 189.489C168.672 210.305 140.439 222 111 222C81.561 222 53.3277 210.305 32.5111 189.489C11.6946 168.672 0 140.439 0 111C0 81.561 11.6946 53.3277 32.5111 32.5111C53.3277 11.6946 81.561 0 111 0V0ZM111 18.5C98.8527 18.5 86.8244 20.8926 75.6018 25.5411C64.3792 30.1897 54.182 37.0032 45.5926 45.5926C28.2455 62.9397 18.5 86.4675 18.5 111C18.5 133.2 26.3625 153.55 39.405 169.553L169.553 39.405C153.55 26.3625 133.2 18.5 111 18.5ZM111 203.5C135.533 203.5 159.06 193.754 176.407 176.407C193.754 159.06 203.5 135.533 203.5 111C203.5 88.8 195.637 68.45 182.595 52.4475L52.4475 182.595C68.45 195.637 88.8 203.5 111 203.5Z" fill="#DEE2E6"/>
</svg>
