<svg width="100" height="26" viewBox="0 0 100 26" fill="none" xmlns="http://www.w3.org/2000/svg">
<g clip-path="url(#clip0_429_1721)">
<path d="M0 9.1318C0 4.13496 3.35 0 8.595 0C9.72906 0.00184572 10.851 0.239142 11.8933 0.69761C12.9357 1.15608 13.8768 1.82624 14.66 2.66773L12.81 4.82755C11.6685 3.71235 10.1512 3.09292 8.57501 3.09866C5.03501 3.09866 2.81 5.79202 2.81 9.1318C2.81 12.4716 5.03501 15.1855 8.57501 15.1855C10.1547 15.1843 11.6725 14.5555 12.81 13.4309L14.66 15.5959C13.8761 16.4364 12.9348 17.106 11.8926 17.5644C10.8505 18.0228 9.72888 18.2606 8.595 18.2636C3.35 18.2636 0 14.1286 0 9.1318Z" fill="currentColor"/>
<path d="M21.475 5.30978C25.13 5.30978 27.355 8.26479 27.355 11.7277C27.355 15.1906 25.13 18.1405 21.475 18.1405C17.82 18.1405 15.6 15.1855 15.6 11.7277C15.6 8.26992 17.845 5.30978 21.475 5.30978ZM24.78 11.7277C24.78 9.63456 23.585 8.04932 21.475 8.04932C19.365 8.04932 18.175 9.63456 18.175 11.7277C18.175 13.8208 19.37 15.4266 21.475 15.4266C23.58 15.4266 24.78 13.8413 24.78 11.7277Z" fill="currentColor"/>
<path d="M35.0599 8.19298C34.6641 8.18604 34.271 8.26091 33.9039 8.41314C33.5369 8.56537 33.2035 8.79185 32.9236 9.07907C32.6436 9.3663 32.4229 9.70841 32.2745 10.085C32.1261 10.4616 32.0532 10.865 32.0599 11.2711V18.0225H29.3199V5.38161H32.1049V7.25414C32.4443 6.68077 32.9224 6.2071 33.4926 5.87902C34.0629 5.55095 34.7061 5.3796 35.36 5.38161C38.22 5.38161 40.8199 7.08999 40.8199 10.7632V18.043H38.0299V11.1993C38.0099 9.46527 37.0999 8.19298 35.0599 8.19298Z" fill="currentColor"/>
<path d="M48.3199 18.043C47.2844 17.9949 46.3057 17.5437 45.583 16.7812C44.8603 16.0187 44.4479 15.0023 44.4299 13.9388V7.95186H42.3199V5.3098H44.45V0.743896H47.3549V5.3098H50.61V7.95186H47.3549V13.9337C47.3549 14.7032 47.7049 15.0675 48.3549 15.0675C48.6799 15.0675 48.7949 14.9957 49.1249 14.6571L51.1249 16.822C50.3799 17.5872 49.374 18.0251 48.3199 18.043Z" fill="currentColor"/>
<path d="M58.0349 5.3098C59.137 5.26883 60.2247 5.57666 61.1505 6.19154C62.0762 6.80643 62.7952 7.6986 63.21 8.74704C63.673 10.1032 63.8717 11.5395 63.795 12.9744H54.6849C55.0399 14.5134 56.1399 15.5395 58.0599 15.5395C60.2849 15.5395 60.73 14.1697 60.73 14.1697L63.1849 15.2778C63.1849 15.2778 62.0649 18.1097 58.0349 18.1097C54.2199 18.1097 52.0649 15.1804 52.0649 11.7226C52.0649 8.26481 54.2199 5.3098 58.0349 5.3098ZM58.0599 7.9057C56.3249 7.9057 54.9449 8.7727 54.6849 10.6452H61.1499C60.9849 9.03434 59.9099 7.9057 58.0599 7.9057V7.9057Z" fill="currentColor"/>
<path d="M72.41 11.7277L76.91 18.043H73.585L70.705 14.0825L67.82 18.043H64.47L68.92 11.7277L64.355 5.38159H67.725L70.68 9.48578L73.605 5.38159H76.975L72.41 11.7277Z" fill="currentColor"/>
<path d="M83.8199 18.043C82.7844 17.9949 81.8057 17.5437 81.083 16.7812C80.3603 16.0187 79.9479 15.0023 79.9299 13.9388V7.95186H77.8199V5.3098H79.95V0.743896H82.8199V5.3098H86.075V7.95186H82.8199V13.9337C82.8199 14.7032 83.1699 15.0675 83.8199 15.0675C84.1499 15.0675 84.2649 14.9957 84.5949 14.6571L86.5949 16.822C85.8573 17.5799 84.8635 18.0172 83.8199 18.043Z" fill="currentColor"/>
<path d="M96.865 5.4329L93.585 13.2873L90.235 5.30978H87.05L92.135 16.9862L90.39 21.4443C90.1779 21.9834 89.8138 22.4451 89.3444 22.7705C88.8749 23.0959 88.3215 23.2701 87.755 23.2707H0.959961V26H88.11C89.0801 26.0007 90.0292 25.7095 90.8397 25.1624C91.6502 24.6153 92.2866 23.8363 92.67 22.9218L95.32 16.6014L100 5.4329H96.865Z" fill="currentColor"/>
<path d="M95.87 11.7277H91.25V13.7541H95.87V11.7277Z" fill="currentColor"/>
</g>
<defs>
<clipPath id="clip0_429_1721">
<rect width="100" height="26" fill="white"/>
</clipPath>
</defs>
</svg>
