<svg width="16" height="16" viewBox="0 0 16 16" fill="none" xmlns="http://www.w3.org/2000/svg">
<g clip-path="url(#clip0_735_5413)">
<path fill-rule="evenodd" clip-rule="evenodd" d="M8.0001 0.333252C6.10091 0.334237 4.26401 1.00689 2.81783 2.23093C1.37166 3.45498 0.410521 5.15059 0.106282 7.01458C-0.197958 8.87858 0.174536 10.7894 1.15717 12.4054C2.1398 14.0213 3.66848 15.2371 5.46987 15.8352C5.86729 15.909 6.01698 15.6627 6.01698 15.4532C6.01698 15.2438 6.00903 14.6366 6.00638 13.9727C3.78085 14.4535 3.31058 13.0336 3.31058 13.0336C2.9476 12.1115 2.42301 11.8692 2.42301 11.8692C1.69706 11.3766 2.47733 11.3858 2.47733 11.3858C3.28143 11.4424 3.70402 12.2064 3.70402 12.2064C4.41672 13.4221 5.57585 13.0705 6.03155 12.865C6.10309 12.35 6.31107 11.9996 6.54025 11.8007C4.76247 11.6005 2.89461 10.9182 2.89461 7.8702C2.88359 7.07972 3.1786 6.31529 3.71859 5.73504C3.63646 5.53483 3.36224 4.72607 3.79675 3.62754C3.79675 3.62754 4.46839 3.41416 5.99712 4.44288C7.30836 4.08633 8.69183 4.08633 10.0031 4.44288C11.5305 3.41416 12.2008 3.62754 12.2008 3.62754C12.6366 4.72344 12.3624 5.53219 12.2803 5.73504C12.822 6.31538 13.1176 7.08115 13.1056 7.87283C13.1056 10.9274 11.2337 11.6005 9.45331 11.7967C9.73945 12.0444 9.99513 12.5278 9.99513 13.2707C9.99513 14.335 9.98585 15.1911 9.98585 15.4532C9.98585 15.6653 10.1302 15.9129 10.5356 15.8352C12.3372 15.237 13.8661 14.0211 14.8487 12.4048C15.8313 10.7886 16.2036 8.87745 15.899 7.01329C15.5944 5.14912 14.6328 3.45349 13.1861 2.22966C11.7395 1.00582 9.90215 0.333613 8.00274 0.333252H8.0001Z" fill="#ADB5BD"/>
<path d="M3.02973 11.7547C3.0125 11.7942 2.94892 11.806 2.89725 11.7784C2.84559 11.7507 2.80718 11.6993 2.82572 11.6585C2.84427 11.6177 2.90653 11.6071 2.95819 11.6348C3.00986 11.6625 3.0496 11.7152 3.02973 11.7547Z" fill="#ADB5BD"/>
<path d="M3.35417 12.1142C3.32674 12.1279 3.29535 12.1318 3.26539 12.125C3.23542 12.1183 3.20874 12.1014 3.18991 12.0773C3.13824 12.022 3.12764 11.9456 3.16738 11.9113C3.20712 11.8771 3.27866 11.8929 3.33033 11.9482C3.38199 12.0035 3.39391 12.0799 3.35417 12.1142Z" fill="#ADB5BD"/>
<path d="M3.66958 12.5714C3.62056 12.6056 3.5371 12.5714 3.49074 12.5029C3.47791 12.4906 3.46772 12.4758 3.46075 12.4595C3.45379 12.4433 3.4502 12.4257 3.4502 12.408C3.4502 12.3903 3.45379 12.3728 3.46075 12.3565C3.46772 12.3402 3.47791 12.3255 3.49074 12.3132C3.53975 12.2803 3.62321 12.3132 3.66958 12.3804C3.71594 12.4475 3.71727 12.5371 3.66958 12.5714Z" fill="#ADB5BD"/>
<path d="M4.09737 13.014C4.05365 13.0627 3.9649 13.0496 3.89204 12.9837C3.81918 12.9178 3.80195 12.8283 3.84567 12.7809C3.88939 12.7334 3.97814 12.7466 4.05365 12.8111C4.12916 12.8757 4.14374 12.9666 4.09737 13.014Z" fill="#ADB5BD"/>
<path d="M4.69747 13.272C4.6776 13.3339 4.58752 13.3616 4.49744 13.3352C4.40735 13.3089 4.34774 13.2351 4.36496 13.1719C4.38218 13.1087 4.47359 13.0797 4.565 13.1087C4.6564 13.1377 4.71469 13.2075 4.69747 13.272Z" fill="#ADB5BD"/>
<path d="M5.35189 13.3169C5.35189 13.3814 5.27771 13.4367 5.18233 13.438C5.08695 13.4394 5.00879 13.3867 5.00879 13.3221C5.00879 13.2576 5.08297 13.2023 5.17835 13.201C5.27373 13.1996 5.35189 13.251 5.35189 13.3169Z" fill="#ADB5BD"/>
<path d="M5.96124 13.2154C5.97317 13.28 5.90693 13.3472 5.81155 13.363C5.71617 13.3788 5.63271 13.3406 5.62079 13.2774C5.60887 13.2141 5.67775 13.1456 5.77048 13.1285C5.86321 13.1114 5.94932 13.1509 5.96124 13.2154Z" fill="#ADB5BD"/>
</g>
<defs>
<clipPath id="clip0_735_5413">
<rect width="16" height="16" fill="white"/>
</clipPath>
</defs>
</svg>
