<svg width="16" height="16" viewBox="0 0 16 16" fill="none" xmlns="http://www.w3.org/2000/svg">
<g clip-path="url(#clip0_633_7667)">
<path d="M8.00001 1.44184C10.1374 1.44184 10.3883 1.45137 11.233 1.48948C12.0143 1.52441 12.4367 1.65462 12.7193 1.76578C13.0941 1.91187 13.3609 2.08337 13.6403 2.36284C13.9198 2.64232 14.0945 2.90909 14.2374 3.28384C14.3454 3.56649 14.4788 3.98888 14.5137 4.77015C14.5518 5.61493 14.5613 5.86582 14.5613 8.00318C14.5613 10.1405 14.5518 10.3914 14.5137 11.2362C14.4788 12.0175 14.3486 12.4399 14.2374 12.7225C14.0913 13.0973 13.9198 13.364 13.6403 13.6435C13.3609 13.923 13.0941 14.0977 12.7193 14.2406C12.4367 14.3486 12.0143 14.4819 11.233 14.5169C10.3883 14.555 10.1374 14.5645 8.00001 14.5645C5.86265 14.5645 5.61176 14.555 4.76698 14.5169C3.98571 14.4819 3.56332 14.3517 3.28067 14.2406C2.90592 14.0945 2.63915 13.923 2.35967 13.6435C2.08019 13.364 1.90552 13.0973 1.76261 12.7225C1.65463 12.4399 1.52124 12.0175 1.48631 11.2362C1.4482 10.3914 1.43867 10.1405 1.43867 8.00318C1.43867 5.86582 1.4482 5.61493 1.48631 4.77015C1.52124 3.98888 1.65145 3.56649 1.76261 3.28384C1.9087 2.90909 2.08019 2.64232 2.35967 2.36284C2.63915 2.08337 2.90592 1.90869 3.28067 1.76578C3.56332 1.6578 3.98571 1.52441 4.76698 1.48948C5.61176 1.44819 5.86583 1.44184 8.00001 1.44184ZM8.00001 0C5.82772 0 5.55459 0.00952759 4.70028 0.047638C3.84915 0.0857483 3.26797 0.22231 2.75983 0.419214C2.23263 0.622469 1.78801 0.898769 1.34339 1.34339C0.89877 1.78801 0.625646 2.23581 0.419214 2.75983C0.222311 3.26796 0.0857484 3.84915 0.047638 4.70345C0.0095276 5.55459 0 5.82771 0 8C0 10.1723 0.0095276 10.4454 0.047638 11.2997C0.0857484 12.1509 0.222311 12.732 0.419214 13.2434C0.62247 13.7705 0.89877 14.2152 1.34339 14.6598C1.78801 15.1044 2.23581 15.3775 2.75983 15.584C3.26797 15.7809 3.84915 15.9174 4.70346 15.9555C5.55777 15.9936 5.82772 16.0032 8.00318 16.0032C10.1787 16.0032 10.4486 15.9936 11.3029 15.9555C12.154 15.9174 12.7352 15.7809 13.2465 15.584C13.7737 15.3807 14.2184 15.1044 14.663 14.6598C15.1076 14.2152 15.3807 13.7674 15.5872 13.2434C15.7841 12.7352 15.9206 12.154 15.9587 11.2997C15.9968 10.4454 16.0064 10.1755 16.0064 8C16.0064 5.82453 15.9968 5.55459 15.9587 4.70028C15.9206 3.84915 15.7841 3.26796 15.5872 2.75665C15.3839 2.22946 15.1076 1.78484 14.663 1.34021C14.2184 0.895594 13.7706 0.622469 13.2465 0.416038C12.7384 0.219135 12.1572 0.0825725 11.3029 0.0444621C10.4454 0.00952759 10.1723 0 8.00001 0Z" fill="#ADB5BD"/>
<path d="M8.00019 3.89355C5.73263 3.89355 3.89062 5.73238 3.89062 8.00312C3.89062 10.2739 5.72945 12.1127 8.00019 12.1127C10.2709 12.1127 12.1098 10.2739 12.1098 8.00312C12.1098 5.73238 10.2709 3.89355 8.00019 3.89355ZM8.00019 10.6677C6.52659 10.6677 5.33247 9.47355 5.33247 7.99995C5.33247 6.52634 6.52659 5.33222 8.00019 5.33222C9.47379 5.33222 10.6679 6.52634 10.6679 7.99995C10.6679 9.47355 9.47379 10.6677 8.00019 10.6677Z" fill="#ADB5BD"/>
<path d="M12.2716 4.68751C12.8013 4.68751 13.2307 4.2581 13.2307 3.7284C13.2307 3.1987 12.8013 2.76929 12.2716 2.76929C11.7419 2.76929 11.3125 3.1987 11.3125 3.7284C11.3125 4.2581 11.7419 4.68751 12.2716 4.68751Z" fill="#ADB5BD"/>
</g>
<defs>
<clipPath id="clip0_633_7667">
<rect width="16" height="16" fill="white"/>
</clipPath>
</defs>
</svg>
