<svg width="16" height="16" viewBox="0 0 16 16" fill="none" xmlns="http://www.w3.org/2000/svg">
<g clip-path="url(#clip0_633_7148)">
<path d="M2.97284 2.80541C3.47017 3.20941 3.65684 3.17875 4.59151 3.11608L13.4015 2.58741C13.5882 2.58741 13.4328 2.40075 13.3708 2.37008L11.9068 1.31208C11.6268 1.09475 11.2528 0.845412 10.5368 0.907412L2.00684 1.53008C1.69617 1.56075 1.63351 1.71675 1.75751 1.84075L2.97284 2.80541ZM3.50151 4.85875V14.1281C3.50151 14.6261 3.75017 14.8127 4.31084 14.7814L13.9928 14.2214C14.5535 14.1908 14.6162 13.8481 14.6162 13.4434V4.23608C14.6162 3.83208 14.4608 3.61408 14.1175 3.64475L3.99951 4.23608C3.62617 4.26741 3.50151 4.45408 3.50151 4.85808V4.85875ZM13.0595 5.35541C13.1215 5.63541 13.0595 5.91541 12.7795 5.94741L12.3128 6.04075V12.8834C11.9075 13.1014 11.5342 13.2261 11.2228 13.2261C10.7242 13.2261 10.5995 13.0701 10.2262 12.6041L7.17484 7.81341V12.4481L8.14017 12.6667C8.14017 12.6667 8.14017 13.2267 7.36151 13.2267L5.21351 13.3507C5.15151 13.2267 5.21351 12.9154 5.43151 12.8534L5.99151 12.6981V6.56941L5.21484 6.50675C5.15217 6.22675 5.30817 5.82275 5.7435 5.79141L8.0475 5.63608L11.2235 10.4887V6.19541L10.4135 6.10275C10.3515 5.76008 10.6002 5.51141 10.9115 5.48075L13.0595 5.35541ZM1.29084 0.690079L10.1642 0.0367454C11.2535 -0.0565879 11.5342 0.00541212 12.2188 0.503412L15.0515 2.49408C15.5182 2.83608 15.6742 2.92941 15.6742 3.30275V14.2214C15.6742 14.9054 15.4255 15.3108 14.5542 15.3721L4.24884 15.9948C3.59551 16.0261 3.2835 15.9328 2.94084 15.4967L0.854839 12.7901C0.481505 12.2921 0.326172 11.9194 0.326172 11.4834V1.77808C0.326172 1.21875 0.575505 0.751412 1.29084 0.690079Z" fill="#ADB5BD"/>
</g>
<defs>
<clipPath id="clip0_633_7148">
<rect width="16" height="16" fill="white"/>
</clipPath>
</defs>
</svg>
