<svg width="24" height="24" viewBox="0 0 24 24" fill="none" xmlns="http://www.w3.org/2000/svg">
<path d="M1.5 7C1.5 5.89543 2.39543 5 3.5 5H16.508C17.0873 5 17.6381 5.25116 18.0179 5.68849L22.3608 10.6885C23.0143 11.4408 23.0143 12.5592 22.3608 13.3115L18.0179 18.3115C17.6381 18.7488 17.0873 19 16.508 19H3.5C2.39543 19 1.5 18.1046 1.5 17V7Z" fill="#868E96"/>
<path d="M20 12C20 12.5523 19.5523 13 19 13C18.4477 13 18 12.5523 18 12C18 11.4477 18.4477 11 19 11C19.5523 11 20 11.4477 20 12Z" fill="white"/>
<path d="M10.4714 7C11.3857 7 12.0667 7.21429 12.5143 7.64286C12.9619 8.07143 13.1857 8.70476 13.1857 9.54286C13.1857 9.99048 13.0762 10.3857 12.8571 10.7286C12.6381 11.0619 12.3143 11.3238 11.8857 11.5143C11.4571 11.6952 10.9286 11.7857 10.3 11.7857L10.3571 11.1429C10.6524 11.1429 10.9905 11.1857 11.3714 11.2714C11.7524 11.3476 12.119 11.4905 12.4714 11.7C12.8333 11.9 13.1286 12.1857 13.3571 12.5571C13.5952 12.919 13.7143 13.3857 13.7143 13.9571C13.7143 14.5857 13.6095 15.1 13.4 15.5C13.2 15.9 12.9333 16.2095 12.6 16.4286C12.2667 16.6476 11.9095 16.8 11.5286 16.8857C11.1476 16.9619 10.781 17 10.4286 17H6.87143C6.62381 17 6.41429 16.919 6.24286 16.7571C6.08095 16.5857 6 16.3762 6 16.1286V7.87143C6 7.62381 6.08095 7.41905 6.24286 7.25714C6.41429 7.08571 6.62381 7 6.87143 7H10.4714ZM10.2143 8.68571H7.67143L7.85714 8.45714V11.0429L7.68571 10.9143H10.2571C10.5333 10.9143 10.781 10.8238 11 10.6429C11.219 10.4619 11.3286 10.2 11.3286 9.85714C11.3286 9.44762 11.2238 9.15238 11.0143 8.97143C10.8143 8.78095 10.5476 8.68571 10.2143 8.68571ZM10.3286 12.6H7.72857L7.85714 12.4857V15.5L7.71429 15.3571H10.4286C10.8667 15.3571 11.2143 15.2429 11.4714 15.0143C11.7286 14.7762 11.8571 14.4238 11.8571 13.9571C11.8571 13.5286 11.7714 13.219 11.6 13.0286C11.4286 12.8381 11.2238 12.719 10.9857 12.6714C10.7476 12.6238 10.5286 12.6 10.3286 12.6Z" fill="white"/>
</svg>
